<svg width="93" height="88" viewBox="0 0 93 88" fill="none" xmlns="http://www.w3.org/2000/svg">
<path d="M60.6679 44.9475L65.5131 47.3275C66.9423 48.0296 68.675 47.4074 69.2266 45.9137C70.644 42.0755 71.7522 37.5298 72.1339 32.8533C72.5807 27.3803 72.0285 21.7844 69.8668 16.9421L69.8638 16.9434C69.7677 16.7348 69.67 16.5267 69.5708 16.3193C68.827 14.885 67.4339 13.1259 65.3822 11.962C63.0697 10.65 59.8572 10.0563 55.6416 11.6436C54.7472 11.9804 53.8367 12.4156 52.9237 12.9347C54.0705 14.896 54.8921 17.5413 54.9574 21.0293C55.0164 24.1818 54.5076 27.1671 53.7282 29.8268L61.1172 32.5846C62.8627 33.2361 64.008 34.9641 63.6614 36.7948C63.2425 39.008 62.5388 41.1624 61.5722 43.2095C61.2987 43.7887 60.9979 44.3702 60.6679 44.9475Z" fill="#373A4A"/>
<path d="M35.6201 42.8572C36.251 42.6662 36.9173 42.3901 37.6166 42.006C40.5779 40.3796 42.8175 37.7238 44.4096 35.1185C45.4417 33.4296 46.218 31.7353 46.7516 30.3041C46.9921 29.6592 47.7051 29.3087 48.3499 29.5493L60.3062 34.0117C61.5096 34.4609 62.268 35.6722 61.9984 36.9281C61.6413 38.5912 61.0392 40.5482 60.1098 42.5165C58.589 45.7372 56.219 48.9324 52.6729 50.952C49.7428 52.6208 46.746 53.4817 43.9447 53.611C40.8924 53.0919 38.89 51.7601 37.6143 49.9816C36.2637 48.0986 35.6631 45.624 35.6201 42.8572Z" fill="#373A4A"/>
<path d="M43.0304 0.926203C50.5719 0.0390672 56.1754 1.71628 60.4288 4.73529C62.6888 6.33941 64.5867 8.3361 66.1963 10.5625L66.179 10.5526C63.4336 8.99512 59.7195 8.37784 55.0727 10.1275C48.8346 12.4764 42.1098 19.0954 38.5295 25.8454C36.2072 30.2236 33.9172 36.9371 34.0037 42.8624C34.0471 45.8324 34.689 48.6792 36.3021 50.9281C36.8636 51.711 37.5352 52.4106 38.3246 53.0125C32.5801 51.5759 25.352 47.5762 21.4566 38.3566C18.0572 30.3109 19.6735 21.4047 24.0779 14.2464C28.489 7.07727 35.6124 1.79882 43.0304 0.926203Z" fill="#373A4A"/>
<path d="M18.7892 67.1096C18.849 66.9059 19.0359 66.766 19.2482 66.766H22.5652C22.8294 66.766 23.0436 66.9801 23.0436 67.2443V86.9072C23.0436 87.1714 22.8294 87.3856 22.5652 87.3856H19.0678C18.8507 87.3856 18.6608 87.2395 18.6053 87.0296L18.2042 85.5145C16.4513 87.0801 14.165 87.9965 11.5357 87.9965C5.3626 87.9965 0.751831 83.2998 0.751831 77.0758C0.751831 70.8517 5.3626 66.1932 11.5357 66.1932C14.2031 66.1932 16.5275 67.1478 18.3185 68.7134L18.7892 67.1096ZM11.993 82.7271C15.2319 82.7271 17.5945 80.3215 17.5945 77.0758C17.5945 73.8301 15.2319 71.4245 11.993 71.4245C8.75399 71.4245 6.39145 73.8301 6.39145 77.0758C6.39145 80.2833 8.75399 82.7271 11.993 82.7271Z" fill="#373A4A"/>
<path d="M41.0465 67.083C41.1146 66.8928 41.2948 66.766 41.4968 66.766H46.2104C46.548 66.766 46.7794 67.1063 46.6552 67.4203L38.879 87.0831C38.8069 87.2657 38.6305 87.3856 38.4342 87.3856H33.9371C33.7425 87.3856 33.5672 87.2677 33.4939 87.0874L25.4997 67.4245C25.3718 67.1099 25.6033 66.766 25.9429 66.766H30.8414C31.0425 66.766 31.2222 66.8918 31.291 67.0808L36.2064 80.5887L41.0465 67.083Z" fill="#373A4A"/>
<path d="M65.1838 66.766H68.8589C69.1231 66.766 69.3373 66.9801 69.3373 67.2443V86.9072C69.3373 87.1714 69.1231 87.3856 68.8589 87.3856H65.3615C65.1445 87.3856 64.9546 87.2395 64.899 87.0296L64.4979 85.5145C62.7451 87.0801 60.4587 87.9965 57.8295 87.9965C51.6564 87.9965 47.0456 83.2998 47.0456 77.0758C47.0456 70.8517 51.6564 66.1932 57.8295 66.1932C60.4968 66.1932 62.8213 67.1478 64.6122 68.7134L65.1838 66.766ZM58.2867 82.7271C61.5257 82.7271 63.8882 80.3215 63.8882 77.0758C63.8882 73.8301 61.5257 71.4245 58.2867 71.4245C55.0478 71.4245 52.6852 73.8301 52.6852 77.0758C52.6852 80.2833 55.0478 82.7271 58.2867 82.7271Z" fill="#373A4A"/>
<path d="M76.6965 64.746C75.2087 64.746 74.0026 63.5399 74.0026 62.0521C74.0026 60.5643 75.2087 59.3582 76.6965 59.3582H76.834C78.3218 59.3582 79.5279 60.5643 79.5279 62.0521C79.5279 63.5399 78.3218 64.746 76.834 64.746H76.6965ZM74.4429 87.3856C74.1787 87.3856 73.9645 87.1714 73.9645 86.9072V67.2443C73.9645 66.9801 74.1787 66.766 74.4429 66.766H79.0495C79.3137 66.766 79.5279 66.9801 79.5279 67.2443V86.9072C79.5279 87.1714 79.3137 87.3856 79.0495 87.3856H74.4429Z" fill="#373A4A"/>
<path d="M89.669 80.6142C89.669 81.1002 89.7689 81.4432 89.9685 81.6433C90.1967 81.8148 90.5533 81.9005 91.0382 81.9005C91.2799 81.9005 91.5052 81.9005 91.834 81.9005C92.1627 81.9005 92.3646 82.1959 92.3646 82.4664V86.7461L92.3647 86.7657C92.3652 87.0776 92.1266 87.3544 91.7475 87.3544C91.0273 87.3544 90.4299 87.3856 89.669 87.3856L88.6411 87.3855C87.1863 87.3855 86.0596 86.9996 85.2609 86.2278C84.4907 85.4561 84.1056 84.084 84.1056 82.1117V59.8366C84.1056 59.5724 84.3198 59.3582 84.584 59.3582L89.1906 59.3582C89.4548 59.3582 89.669 59.5723 89.669 59.8366V80.6142Z" fill="#373A4A"/>
</svg>
