<svg width="92" height="88" viewBox="0 0 92 88" fill="none" xmlns="http://www.w3.org/2000/svg">
<path d="M49.8267 40.0853L65.7566 47.6516C66.574 48.0398 67.5532 47.6932 67.9116 46.8623C71.6346 38.2311 73.9445 26.0829 69.8125 16.7377C65.9206 7.93539 56.2958 5.54412 52.8884 6.04436L46.6373 9.43715C49.003 9.8721 53.7734 12.8299 53.9297 21.1813C54.059 28.095 51.2823 34.174 49.1527 37.4935C48.5791 38.3876 48.8671 39.6295 49.8267 40.0853Z" fill="#2B80D7"/>
<mask id="mask0_757_4570" style="mask-type:alpha" maskUnits="userSpaceOnUse" x="46" y="5" width="27" height="43">
<path d="M49.8271 40.0864L65.7571 47.6528C66.5744 48.041 67.5536 47.6944 67.912 46.8635C71.635 38.2322 73.9449 26.084 69.813 16.7388C65.921 7.93655 56.2963 5.54528 52.8888 6.04552L46.6377 9.43831C49.0034 9.87326 53.7738 12.831 53.9301 21.1825C54.0595 28.0961 51.2827 34.1751 49.1532 37.4946C48.5796 38.3887 48.8675 39.6307 49.8271 40.0864Z" fill="#DEA00D"/>
</mask>
<g mask="url(#mask0_757_4570)">
<g filter="url(#filter0_f_757_4570)">
<path d="M54.7044 42.6808C63.0974 36.621 74.3437 11.9264 68.7019 7.04382C66.6275 5.24857 47.6946 5.67322 46.0031 4.33215L47.3817 6.38849C47.3817 6.38849 52.9247 13.3452 52.5619 24.2697C52.3391 30.9788 49.9333 37.9146 48.4384 41.3052C48.194 41.8595 37.088 36.3685 36.8794 36.7944C36.2861 38.0054 47.1772 43.4112 47.1772 43.4112L54.1535 42.8761C54.3542 42.8607 54.5412 42.7986 54.7044 42.6808Z" fill="url(#paint0_linear_757_4570)"/>
</g>
<g filter="url(#filter1_f_757_4570)">
<path d="M68.1045 49.2774C76.3125 43.0885 83.9303 24.7101 78.2016 14.4408C76.8641 12.0433 66.8495 5.18274 65.158 3.84167L64.6322 10.6753C64.6322 10.6753 70.8134 16.6424 70.4499 27.5877C70.1649 36.17 67.7484 42.7129 66.7183 45.1381C66.4695 45.7238 65.8029 45.9808 65.2131 45.7418C62.4299 44.6138 55.055 41.5654 55.3131 41.0383C54.7199 42.2494 65.5105 48.5875 65.5105 48.5875L66.924 49.3507C67.3022 49.5549 67.7614 49.5361 68.1045 49.2774Z" fill="url(#paint1_linear_757_4570)"/>
</g>
<g opacity="0.8" filter="url(#filter2_f_757_4570)">
<rect width="20.7247" height="17.3755" rx="3.27252" transform="matrix(0.949793 0.312879 -0.31171 0.950177 47.6438 25.8188)" fill="#13497E"/>
</g>
<g opacity="0.7" filter="url(#filter3_f_757_4570)">
<path d="M49.2739 36.0283C55.9297 31.3699 56.9464 16.5226 51.1854 10.7932C49.7002 9.31622 47.4838 7.73067 46.0543 6.742L47.2194 8.25799C47.2194 8.25799 51.9036 13.3867 51.5971 21.4405C51.4088 26.3866 49.3757 31.4998 48.1124 33.9995C47.9059 34.4081 38.5205 30.36 38.3442 30.674C37.8428 31.5668 47.0466 35.552 47.0466 35.552L48.2088 36.0995C48.5543 36.2623 48.961 36.2472 49.2739 36.0283Z" fill="#2B80D7"/>
</g>
</g>
<path d="M61.5633 33.5506L46.9443 28.249C46.4901 28.0843 45.9939 28.3452 45.8536 28.8075C44.8376 32.1539 42.1725 38.1952 36.9966 40.4589C30.1899 43.4359 27.9504 36.7755 30.9455 45.1922C33.9406 53.6089 43.8374 56.023 52.8878 50.8686C59.4496 47.1316 61.9792 39.5039 62.5897 35.193C62.6918 34.4716 62.2483 33.799 61.5633 33.5506Z" fill="url(#paint2_linear_757_4570)"/>
<mask id="mask1_757_4570" style="mask-type:alpha" maskUnits="userSpaceOnUse" x="29" y="28" width="34" height="26">
<path d="M61.563 33.5519L46.9439 28.2503C46.4898 28.0856 45.9936 28.3465 45.8533 28.8087C44.8373 32.1552 42.1722 38.1964 36.9963 40.4602C30.1896 43.4372 27.9501 36.7768 30.9452 45.1935C33.9403 53.6102 43.8371 56.0243 52.8875 50.8699C59.4492 47.1328 61.9789 39.5052 62.5894 35.1943C62.6915 34.4729 62.248 33.8003 61.563 33.5519Z" fill="url(#paint3_radial_757_4570)"/>
</mask>
<g mask="url(#mask1_757_4570)">
<g filter="url(#filter4_f_757_4570)">
<path d="M38.7514 55.8275C52.942 55.8275 58.8779 30.1672 57.2258 25.8103C57.1368 25.5758 56.9208 25.4272 56.6815 25.352L30.3177 17.0657L46.3605 23.6952C46.5376 23.7684 46.6401 23.9522 46.6017 24.14C46.2931 25.6518 44.7792 32.1862 40.9447 36.3328C36.5859 41.0462 27.5835 42.1038 23.8699 41.2249C21.8925 41.2218 20.7762 40.5439 20.7762 40.5439C25.2731 43.4717 31.7311 55.8275 38.7514 55.8275Z" fill="url(#paint4_linear_757_4570)"/>
</g>
<g opacity="0.4" filter="url(#filter5_f_757_4570)">
<path d="M40.3859 39.6308C46.152 35.7161 50.4525 20.8874 49.3029 16.7571C49.1992 16.3846 48.8392 16.1804 48.453 16.1631L33.0072 15.4716L46.4522 22.0949C46.6114 22.1733 46.7023 22.341 46.6725 22.516C46.4255 23.9694 45.1602 30.5642 41.9219 34.7387C38.2654 39.4522 30.7136 40.5097 27.5984 39.6308C25.9395 39.6278 25.0831 40.3009 25.0831 40.3009C28.8554 43.2287 35.2659 43.1069 40.3859 39.6308Z" fill="#3EBADD"/>
</g>
<g filter="url(#filter6_f_757_4570)">
<path d="M53.3401 52.1335C60.2838 48.1789 66.3853 32.3043 64.944 28.2901C64.8345 27.9853 64.5341 27.8202 64.2126 27.7813L45.8174 25.5569L45.3997 28.261L59.9279 33.9454C60.403 34.1313 60.7098 34.5903 60.6474 35.0967C60.4176 36.961 59.4339 41.6517 55.2309 46.4443C49.8115 52.624 41.9767 52.3313 38.2631 51.4524C36.2856 51.4494 35.799 51.4524 35.799 51.4524C40.0305 54.4657 47.2367 55.6095 53.3401 52.1335Z" fill="url(#paint5_linear_757_4570)"/>
</g>
</g>
<path d="M39.4759 26.203C35.0484 34.5503 30.764 51.6436 44.3071 53.5357C39.0108 53.9439 26.9738 51.2183 21.5045 38.2735C14.6679 22.0925 28.0814 2.64929 43.0569 0.887653C57.6971 -0.834552 65.2434 7.17098 69.5891 16.2478C69.7006 16.4636 69.7984 16.6729 69.8826 16.8728C69.7864 16.664 69.6886 16.4556 69.5891 16.2478C67.9169 13.0118 63.1595 8.29311 55.1025 11.3269C49.2742 13.5215 42.8822 19.781 39.4759 26.203Z" fill="#2CBBF9"/>
<mask id="mask2_757_4570" style="mask-type:alpha" maskUnits="userSpaceOnUse" x="19" y="0" width="51" height="54">
<path d="M39.4758 26.2023C35.0482 34.5497 30.7638 51.6429 44.307 53.535C39.0107 53.9433 26.9737 51.2176 21.5044 38.2728C14.6678 22.0919 28.0813 2.64862 43.0568 0.886982C57.697 -0.835223 65.2433 7.17031 69.5889 16.2471C69.7005 16.463 69.7983 16.6722 69.8825 16.8722C69.7863 16.6633 69.6884 16.4549 69.5889 16.2471C67.9168 13.0111 63.1594 8.29244 55.1023 11.3263C49.2741 13.5208 42.882 19.7803 39.4758 26.2023Z" fill="#00CCC0"/>
</mask>
<g mask="url(#mask2_757_4570)">
<g filter="url(#filter7_f_757_4570)">
<path d="M8.27582 37.9134C13.7451 50.8582 38.6217 54.7347 43.918 54.3264C44.1838 51.8153 36.5846 46.3632 36.8497 40.2965C36.8497 40.2965 27.1594 40.6075 25.6798 26.2015C24.2001 11.7955 32.4464 4.54553 32.4464 4.54553C22.615 9.40194 5.31708 30.9106 8.27582 37.9134Z" fill="url(#paint6_linear_757_4570)"/>
<path d="M69.8819 16.8739C95.4105 -3.77362 52.2229 -8.54001 37.2475 -6.77837C31.0134 -6.04503 14.6144 10.4711 21.0696 17.5786C21.0696 17.5786 27.7639 10.1475 37.2475 8.78991C46.7311 7.4323 51.1226 14.2828 51.1226 14.2828C52.2781 13.5726 55.3163 13.377 56.4552 12.9482C65.0497 9.71199 69.4619 15.9868 69.8819 16.8739Z" fill="url(#paint7_linear_757_4570)"/>
</g>
<g filter="url(#filter8_f_757_4570)">
<path d="M22.1279 39.9406C6.88617 35.1174 14.222 2.36052 29.5139 -2.32769C43.2728 -6.54589 44.4066 0.0820775 46.8269 0.485893C47.1411 0.476166 47.3114 0.482404 47.3114 0.482404C47.1422 0.512088 46.9819 0.511756 46.8269 0.485893C45.0087 0.542179 38.3728 1.13304 32.0445 6.56054C22.5268 14.7234 18.6947 27.7734 22.1279 39.9406Z" fill="#56E5FF"/>
</g>
<g filter="url(#filter9_f_757_4570)">
<path d="M46.774 53.5083C42.5385 58.2859 25.2016 52.4765 19.7323 39.5317C18.7476 37.2011 19.8182 30.0511 19.7471 27.2723C19.7347 27.0638 19.7323 26.9522 19.7323 26.9522C19.7393 27.0511 19.7441 27.158 19.7471 27.2723C19.8391 28.8196 20.4817 35.7047 24.7804 41.9269C29.6584 48.9874 39.6779 51.7528 39.6779 51.7528C40.9853 52.6847 44.6785 53.2155 46.774 53.5083Z" fill="#FDC7C7"/>
</g>
<mask id="mask3_757_4570" style="mask-type:alpha" maskUnits="userSpaceOnUse" x="12" y="25" width="34" height="34">
<rect width="34.7954" height="12.2168" transform="matrix(0.695561 0.718467 -0.717024 0.697049 20.9845 25.1867)" fill="url(#paint8_linear_757_4570)"/>
</mask>
<g mask="url(#mask3_757_4570)">
<path d="M46.7754 53.5078C42.5399 58.2854 25.203 52.476 19.7337 39.5312C18.749 37.2006 19.8196 30.0506 19.7485 27.2718C19.7361 27.0633 19.7337 26.9517 19.7337 26.9517C19.7407 27.0506 19.7456 27.1575 19.7485 27.2718C19.8405 28.8191 20.4831 35.7042 24.7818 41.9264C29.6598 48.9869 39.6793 51.7523 39.6793 51.7523C40.9867 52.6842 44.6799 53.215 46.7754 53.5078Z" fill="#FDC7C7"/>
</g>
<g filter="url(#filter10_f_757_4570)">
<path d="M70.9642 17.5533C72.0796 9.4317 57.6188 -3.15398 42.6433 -1.39234C37.2253 -0.754981 32.4246 4.47608 28.3005 8.75053C28.3005 8.75053 37.66 0.416104 49.0543 2.01947C60.4485 3.62283 65.5396 12.0769 65.5396 12.0769C67.9189 13.4712 69.0044 17.7556 70.9642 17.5533Z" fill="#EFC7FD"/>
</g>
<mask id="mask4_757_4570" style="mask-type:alpha" maskUnits="userSpaceOnUse" x="26" y="-3" width="44" height="20">
<rect width="41.3283" height="13.906" transform="matrix(0.989084 0.147354 -0.146757 0.989173 28.584 -2.93744)" fill="url(#paint9_linear_757_4570)"/>
</mask>
<g mask="url(#mask4_757_4570)">
<path d="M70.9642 17.5552C72.0796 9.43359 57.6188 -3.15208 42.6433 -1.39045C37.2253 -0.753089 32.4246 4.47797 28.3005 8.75243C28.3005 8.75243 37.66 0.417996 49.0543 2.02136C60.4485 3.62472 65.5396 12.0788 65.5396 12.0788C67.9189 13.473 69.0044 17.7575 70.9642 17.5552Z" fill="#EFC7FD"/>
</g>
<g filter="url(#filter11_f_757_4570)">
<path d="M53.6306 9.28636C38.2899 14.134 24.701 42.4285 37.905 53.042C51.1091 63.6555 66.5451 43.4944 74.311 27.165C70.4687 16.1909 68.9713 4.43869 53.6306 9.28636Z" fill="url(#paint10_linear_757_4570)"/>
</g>
<mask id="mask5_757_4570" style="mask-type:alpha" maskUnits="userSpaceOnUse" x="12" y="-8" width="67" height="70">
<rect width="44.7466" height="53.4311" transform="matrix(0.85506 0.518529 -0.516958 0.856011 40.2122 -7.10339)" fill="url(#paint11_linear_757_4570)"/>
</mask>
<g mask="url(#mask5_757_4570)">
<path d="M53.6293 9.28563C38.2886 14.1333 24.6996 42.4278 37.9037 53.0413C51.1078 63.6547 66.5438 43.4937 74.3097 27.1642C70.4674 16.1902 68.97 4.43796 53.6293 9.28563Z" fill="url(#paint12_linear_757_4570)"/>
</g>
</g>
<path d="M18.0847 66.833C18.1445 66.6293 18.3314 66.4894 18.5438 66.4894H21.8607C22.1249 66.4894 22.3391 66.7035 22.3391 66.9678V86.6307C22.3391 86.8949 22.1249 87.1091 21.8607 87.1091H18.3633C18.1462 87.1091 17.9564 86.9629 17.9008 86.7531L17.4997 85.238C15.7468 86.8036 13.4605 87.72 10.8312 87.72C4.65813 87.72 0.0473633 83.0233 0.0473633 76.7992C0.0473633 70.5751 4.65813 65.9166 10.8312 65.9166C13.4986 65.9166 15.8231 66.8712 17.614 68.4368L18.0847 66.833ZM11.2885 82.4505C14.5275 82.4505 16.89 80.0449 16.89 76.7992C16.89 73.5535 14.5275 71.1479 11.2885 71.1479C8.04953 71.1479 5.68698 73.5535 5.68698 76.7992C5.68698 80.0067 8.04953 82.4505 11.2885 82.4505Z" fill="#E2EEFE"/>
<path d="M40.342 66.8064C40.4101 66.6162 40.5904 66.4894 40.7924 66.4894H45.5059C45.8436 66.4894 46.0749 66.8297 45.9508 67.1437L38.1746 86.8066C38.1024 86.9891 37.926 87.1091 37.7297 87.1091H33.2326C33.038 87.1091 32.8628 86.9911 32.7895 86.8108L24.7952 67.1479C24.6673 66.8333 24.8988 66.4894 25.2384 66.4894H30.1369C30.3381 66.4894 30.5177 66.6152 30.5865 66.8042L35.5019 80.3122L40.342 66.8064Z" fill="#E2EEFE"/>
<path d="M64.4794 66.4894H68.1545C68.4187 66.4894 68.6329 66.7035 68.6329 66.9678V86.6307C68.6329 86.8949 68.4187 87.1091 68.1545 87.1091H64.657C64.44 87.1091 64.2501 86.9629 64.1946 86.7531L63.7935 85.238C62.0406 86.8036 59.7543 87.72 57.125 87.72C50.9519 87.72 46.3411 83.0233 46.3411 76.7992C46.3411 70.5751 50.9519 65.9166 57.125 65.9166C59.7924 65.9166 62.1168 66.8712 63.9078 68.4368L64.4794 66.4894ZM57.5823 82.4505C60.8212 82.4505 63.1838 80.0449 63.1838 76.7992C63.1838 73.5535 60.8212 71.1479 57.5823 71.1479C54.3433 71.1479 51.9807 73.5535 51.9807 76.7992C51.9807 80.0067 54.3433 82.4505 57.5823 82.4505Z" fill="#E2EEFE"/>
<path d="M75.992 64.4694C74.5042 64.4694 73.2981 63.2633 73.2981 61.7755C73.2981 60.2877 74.5042 59.0816 75.992 59.0816H76.1295C77.6173 59.0816 78.8234 60.2877 78.8234 61.7755C78.8234 63.2633 77.6173 64.4694 76.1295 64.4694H75.992ZM73.7384 87.1091C73.4742 87.1091 73.26 86.8949 73.26 86.6307V66.9678C73.26 66.7035 73.4742 66.4894 73.7384 66.4894H78.345C78.6092 66.4894 78.8234 66.7035 78.8234 66.9678V86.6307C78.8234 86.8949 78.6092 87.1091 78.345 87.1091H73.7384Z" fill="#E2EEFE"/>
<path d="M88.9645 80.3377C88.9645 80.8236 89.0644 81.1666 89.2641 81.3667C89.4923 81.5382 89.8488 81.624 90.3338 81.624C90.5755 81.624 90.8008 81.624 91.1295 81.624C91.4582 81.624 91.6602 81.9194 91.6602 82.1899V86.4696L91.6602 86.4892C91.6607 86.8011 91.4222 87.0779 91.043 87.0779C90.3228 87.0779 89.7254 87.1091 88.9645 87.1091L87.9367 87.109C86.4819 87.109 85.3551 86.7231 84.5564 85.9513C83.7862 85.1795 83.4011 83.8075 83.4011 81.8352V59.56C83.4011 59.2958 83.6153 59.0816 83.8795 59.0816L88.4861 59.0815C88.7504 59.0815 88.9645 59.2957 88.9645 59.5599V80.3377Z" fill="#E2EEFE"/>
<defs>
<filter id="filter0_f_757_4570" x="30.72" y="-1.80383" width="45.6403" height="51.351" filterUnits="userSpaceOnUse" color-interpolation-filters="sRGB">
<feFlood flood-opacity="0" result="BackgroundImageFix"/>
<feBlend mode="normal" in="SourceGraphic" in2="BackgroundImageFix" result="shape"/>
<feGaussianBlur stdDeviation="3.06799" result="effect1_foregroundBlur_757_4570"/>
</filter>
<filter id="filter1_f_757_4570" x="55.085" y="3.63714" width="25.316" height="46.0568" filterUnits="userSpaceOnUse" color-interpolation-filters="sRGB">
<feFlood flood-opacity="0" result="BackgroundImageFix"/>
<feBlend mode="normal" in="SourceGraphic" in2="BackgroundImageFix" result="shape"/>
<feGaussianBlur stdDeviation="0.102266" result="effect1_foregroundBlur_757_4570"/>
</filter>
<filter id="filter2_f_757_4570" x="37.3568" y="20.9507" width="34.842" height="32.7304" filterUnits="userSpaceOnUse" color-interpolation-filters="sRGB">
<feFlood flood-opacity="0" result="BackgroundImageFix"/>
<feBlend mode="normal" in="SourceGraphic" in2="BackgroundImageFix" result="shape"/>
<feGaussianBlur stdDeviation="2.86346" result="effect1_foregroundBlur_757_4570"/>
</filter>
<filter id="filter3_f_757_4570" x="37.5063" y="5.92387" width="18.2623" height="31.1031" filterUnits="userSpaceOnUse" color-interpolation-filters="sRGB">
<feFlood flood-opacity="0" result="BackgroundImageFix"/>
<feBlend mode="normal" in="SourceGraphic" in2="BackgroundImageFix" result="shape"/>
<feGaussianBlur stdDeviation="0.409065" result="effect1_foregroundBlur_757_4570"/>
</filter>
<filter id="filter4_f_757_4570" x="16.6855" y="12.975" width="44.8998" height="46.9432" filterUnits="userSpaceOnUse" color-interpolation-filters="sRGB">
<feFlood flood-opacity="0" result="BackgroundImageFix"/>
<feBlend mode="normal" in="SourceGraphic" in2="BackgroundImageFix" result="shape"/>
<feGaussianBlur stdDeviation="2.04533" result="effect1_foregroundBlur_757_4570"/>
</filter>
<filter id="filter5_f_757_4570" x="24.2649" y="14.6535" width="26.0429" height="28.5411" filterUnits="userSpaceOnUse" color-interpolation-filters="sRGB">
<feFlood flood-opacity="0" result="BackgroundImageFix"/>
<feBlend mode="normal" in="SourceGraphic" in2="BackgroundImageFix" result="shape"/>
<feGaussianBlur stdDeviation="0.409065" result="effect1_foregroundBlur_757_4570"/>
</filter>
<filter id="filter6_f_757_4570" x="35.5944" y="25.3524" width="29.7669" height="29.1258" filterUnits="userSpaceOnUse" color-interpolation-filters="sRGB">
<feFlood flood-opacity="0" result="BackgroundImageFix"/>
<feBlend mode="normal" in="SourceGraphic" in2="BackgroundImageFix" result="shape"/>
<feGaussianBlur stdDeviation="0.102266" result="effect1_foregroundBlur_757_4570"/>
</filter>
<filter id="filter7_f_757_4570" x="1.39496" y="-13.6598" width="82.9354" height="74.5599" filterUnits="userSpaceOnUse" color-interpolation-filters="sRGB">
<feFlood flood-opacity="0" result="BackgroundImageFix"/>
<feBlend mode="normal" in="SourceGraphic" in2="BackgroundImageFix" result="shape"/>
<feGaussianBlur stdDeviation="3.27252" result="effect1_foregroundBlur_757_4570"/>
</filter>
<filter id="filter8_f_757_4570" x="12.9108" y="-4.54469" width="35.2187" height="45.3034" filterUnits="userSpaceOnUse" color-interpolation-filters="sRGB">
<feFlood flood-opacity="0" result="BackgroundImageFix"/>
<feBlend mode="normal" in="SourceGraphic" in2="BackgroundImageFix" result="shape"/>
<feGaussianBlur stdDeviation="0.409065" result="effect1_foregroundBlur_757_4570"/>
</filter>
<filter id="filter9_f_757_4570" x="18.4955" y="26.1341" width="29.0967" height="29.8513" filterUnits="userSpaceOnUse" color-interpolation-filters="sRGB">
<feFlood flood-opacity="0" result="BackgroundImageFix"/>
<feBlend mode="normal" in="SourceGraphic" in2="BackgroundImageFix" result="shape"/>
<feGaussianBlur stdDeviation="0.409065" result="effect1_foregroundBlur_757_4570"/>
</filter>
<filter id="filter10_f_757_4570" x="27.4823" y="-2.37734" width="44.3606" height="20.7556" filterUnits="userSpaceOnUse" color-interpolation-filters="sRGB">
<feFlood flood-opacity="0" result="BackgroundImageFix"/>
<feBlend mode="normal" in="SourceGraphic" in2="BackgroundImageFix" result="shape"/>
<feGaussianBlur stdDeviation="0.409065" result="effect1_foregroundBlur_757_4570"/>
</filter>
<filter id="filter11_f_757_4570" x="32.3601" y="7.95861" width="42.1555" height="48.2429" filterUnits="userSpaceOnUse" color-interpolation-filters="sRGB">
<feFlood flood-opacity="0" result="BackgroundImageFix"/>
<feBlend mode="normal" in="SourceGraphic" in2="BackgroundImageFix" result="shape"/>
<feGaussianBlur stdDeviation="0.102266" result="effect1_foregroundBlur_757_4570"/>
</filter>
<linearGradient id="paint0_linear_757_4570" x1="57.7398" y1="10.9361" x2="57.4798" y2="43.6311" gradientUnits="userSpaceOnUse">
<stop stop-color="#13497E"/>
<stop offset="0.640419" stop-color="#2B80D7"/>
</linearGradient>
<linearGradient id="paint1_linear_757_4570" x1="67.743" y1="13.3398" x2="67.7555" y2="47.3087" gradientUnits="userSpaceOnUse">
<stop stop-color="#E2C7FE"/>
<stop offset="0.450702" stop-color="#77B8FD"/>
</linearGradient>
<linearGradient id="paint2_linear_757_4570" x1="54.1857" y1="22.0673" x2="36.6414" y2="51.5296" gradientUnits="userSpaceOnUse">
<stop stop-color="#269EBF"/>
<stop offset="1" stop-color="#3EBADD"/>
</linearGradient>
<radialGradient id="paint3_radial_757_4570" cx="0" cy="0" r="1" gradientUnits="userSpaceOnUse" gradientTransform="translate(56.571 31.9251) rotate(139.651) scale(37.1543 27.3867)">
<stop offset="0.411461" stop-color="#FF7360"/>
<stop offset="1" stop-color="#630513"/>
</radialGradient>
<linearGradient id="paint4_linear_757_4570" x1="50.6388" y1="29.7265" x2="36.2137" y2="50.2718" gradientUnits="userSpaceOnUse">
<stop stop-color="#33B6D2"/>
<stop offset="0.142991" stop-color="#5BD8FF"/>
<stop offset="1" stop-color="#228AA7"/>
</linearGradient>
<linearGradient id="paint5_linear_757_4570" x1="55.3442" y1="31.9894" x2="42.9647" y2="52.5431" gradientUnits="userSpaceOnUse">
<stop offset="0.635417" stop-color="#68DEFF"/>
<stop offset="1" stop-color="#F3C8CB"/>
</linearGradient>
<linearGradient id="paint6_linear_757_4570" x1="21.6236" y1="18.0892" x2="35.2731" y2="51.7993" gradientUnits="userSpaceOnUse">
<stop offset="0.661495" stop-color="#88FFF8"/>
<stop offset="1" stop-color="#176781"/>
</linearGradient>
<linearGradient id="paint7_linear_757_4570" x1="28.85" y1="20.1695" x2="66.6656" y2="4.52313" gradientUnits="userSpaceOnUse">
<stop offset="0.731633" stop-color="#4D89FD"/>
<stop offset="1" stop-color="#033883"/>
</linearGradient>
<linearGradient id="paint8_linear_757_4570" x1="33.2283" y1="5.94502" x2="14.1195" y2="9.31137" gradientUnits="userSpaceOnUse">
<stop stop-color="#D9D9D9"/>
<stop offset="0.658857" stop-color="#D9D9D9" stop-opacity="0"/>
</linearGradient>
<linearGradient id="paint9_linear_757_4570" x1="41.3006" y1="10.4685" x2="21.8965" y2="1.45806" gradientUnits="userSpaceOnUse">
<stop stop-color="#D9D9D9"/>
<stop offset="1" stop-color="#D9D9D9" stop-opacity="0"/>
</linearGradient>
<linearGradient id="paint10_linear_757_4570" x1="63.3836" y1="9.17221" x2="37.8783" y2="52.2872" gradientUnits="userSpaceOnUse">
<stop stop-color="#EFC7FE"/>
<stop offset="0.286458" stop-color="#2CBBF9"/>
<stop offset="0.65625" stop-color="#2CBBF9"/>
<stop offset="1" stop-color="#FDC8C8"/>
</linearGradient>
<linearGradient id="paint11_linear_757_4570" x1="43.7762" y1="25.0233" x2="6.52447" y2="24.2371" gradientUnits="userSpaceOnUse">
<stop stop-color="#D9D9D9"/>
<stop offset="0.659264" stop-color="#D9D9D9" stop-opacity="0"/>
</linearGradient>
<linearGradient id="paint12_linear_757_4570" x1="63.3823" y1="9.17147" x2="37.877" y2="52.2864" gradientUnits="userSpaceOnUse">
<stop stop-color="#EFC7FE"/>
<stop offset="0.317708" stop-color="#2CBBF9"/>
<stop offset="0.661458" stop-color="#2CBBF9"/>
<stop offset="1" stop-color="#FDC8C8"/>
</linearGradient>
</defs>
</svg>
