<svg width="93" height="88" viewBox="0 0 93 88" fill="none" xmlns="http://www.w3.org/2000/svg">
<path d="M60.7675 44.9475L65.6127 47.3275C67.0419 48.0296 68.7746 47.4074 69.3262 45.9137C70.7436 42.0755 71.8518 37.5298 72.2335 32.8533C72.6803 27.3803 72.1281 21.7844 69.9664 16.9421L69.9634 16.9434C69.8673 16.7348 69.7696 16.5267 69.6704 16.3193C68.9266 14.885 67.5335 13.1259 65.4818 11.962C63.1693 10.65 59.9568 10.0563 55.7412 11.6436C54.8469 11.9804 53.9363 12.4156 53.0233 12.9347C54.1702 14.896 54.9917 17.5413 55.057 21.0293C55.116 24.1818 54.6072 27.1671 53.8278 29.8268L61.2168 32.5846C62.9623 33.2361 64.1076 34.9641 63.761 36.7948C63.3421 39.008 62.6384 41.1624 61.6718 43.2095C61.3983 43.7887 61.0975 44.3702 60.7675 44.9475Z" fill="#E2EEFE"/>
<path d="M35.7197 42.8572C36.3506 42.6662 37.0169 42.3901 37.7161 42.006C40.6774 40.3796 42.917 37.7238 44.5091 35.1185C45.5412 33.4296 46.3175 31.7353 46.8512 30.3041C47.0916 29.6592 47.8047 29.3087 48.4495 29.5493L60.4057 34.0117C61.6091 34.4609 62.3676 35.6722 62.0979 36.9281C61.7408 38.5912 61.1388 40.5482 60.2093 42.5165C58.6885 45.7372 56.3186 48.9324 52.7725 50.952C49.8423 52.6208 46.8456 53.4817 44.0442 53.611C40.9919 53.0919 38.9895 51.7601 37.7139 49.9816C36.3632 48.0986 35.7627 45.624 35.7197 42.8572Z" fill="#E2EEFE"/>
<path d="M43.13 0.926203C50.6715 0.0390672 56.275 1.71628 60.5284 4.73529C62.7884 6.33941 64.6863 8.3361 66.296 10.5625L66.2786 10.5526C63.5332 8.99512 59.8191 8.37784 55.1723 10.1275C48.9343 12.4764 42.2094 19.0954 38.6291 25.8454C36.3069 30.2236 34.0168 36.9371 34.1034 42.8624C34.1468 45.8324 34.7887 48.6792 36.4017 50.9281C36.9632 51.711 37.6348 52.4106 38.4242 53.0125C32.6797 51.5759 25.4516 47.5762 21.5562 38.3566C18.1568 30.3109 19.7731 21.4047 24.1775 14.2464C28.5886 7.07727 35.712 1.79882 43.13 0.926203Z" fill="#E2EEFE"/>
<path d="M18.8887 67.1096C18.9485 66.9059 19.1355 66.766 19.3478 66.766H22.6647C22.9289 66.766 23.1431 66.9801 23.1431 67.2443V86.9072C23.1431 87.1714 22.9289 87.3856 22.6647 87.3856H19.1673C18.9503 87.3856 18.7604 87.2395 18.7048 87.0296L18.3037 85.5145C16.5509 87.0801 14.2645 87.9965 11.6352 87.9965C5.46215 87.9965 0.851379 83.2998 0.851379 77.0758C0.851379 70.8517 5.46215 66.1932 11.6352 66.1932C14.3026 66.1932 16.6271 67.1478 18.418 68.7134L18.8887 67.1096ZM12.0925 82.7271C15.3315 82.7271 17.694 80.3215 17.694 77.0758C17.694 73.8301 15.3315 71.4245 12.0925 71.4245C8.85354 71.4245 6.491 73.8301 6.491 77.0758C6.491 80.2833 8.85354 82.7271 12.0925 82.7271Z" fill="#E2EEFE"/>
<path d="M41.146 67.083C41.2142 66.8928 41.3944 66.766 41.5964 66.766H46.3099C46.6476 66.766 46.879 67.1063 46.7548 67.4203L38.9786 87.0831C38.9064 87.2657 38.73 87.3856 38.5337 87.3856H34.0367C33.842 87.3856 33.6668 87.2677 33.5935 87.0874L25.5993 67.4245C25.4714 67.1099 25.7028 66.766 26.0424 66.766H30.941C31.1421 66.766 31.3217 66.8918 31.3905 67.0808L36.3059 80.5887L41.146 67.083Z" fill="#E2EEFE"/>
<path d="M65.2834 66.766H68.9585C69.2227 66.766 69.4369 66.9801 69.4369 67.2443V86.9072C69.4369 87.1714 69.2227 87.3856 68.9585 87.3856H65.4611C65.244 87.3856 65.0542 87.2395 64.9986 87.0296L64.5975 85.5145C62.8446 87.0801 60.5583 87.9965 57.929 87.9965C51.7559 87.9965 47.1451 83.2998 47.1451 77.0758C47.1451 70.8517 51.7559 66.1932 57.929 66.1932C60.5964 66.1932 62.9208 67.1478 64.7118 68.7134L65.2834 66.766ZM58.3863 82.7271C61.6252 82.7271 63.9878 80.3215 63.9878 77.0758C63.9878 73.8301 61.6252 71.4245 58.3863 71.4245C55.1473 71.4245 52.7848 73.8301 52.7848 77.0758C52.7848 80.2833 55.1473 82.7271 58.3863 82.7271Z" fill="#E2EEFE"/>
<path d="M76.796 64.746C75.3082 64.746 74.1021 63.5399 74.1021 62.0521C74.1021 60.5643 75.3082 59.3582 76.796 59.3582H76.9335C78.4213 59.3582 79.6274 60.5643 79.6274 62.0521C79.6274 63.5399 78.4213 64.746 76.9335 64.746H76.796ZM74.5424 87.3856C74.2782 87.3856 74.064 87.1714 74.064 86.9072V67.2443C74.064 66.9801 74.2782 66.766 74.5424 66.766H79.149C79.4132 66.766 79.6274 66.9801 79.6274 67.2443V86.9072C79.6274 87.1714 79.4132 87.3856 79.149 87.3856H74.5424Z" fill="#E2EEFE"/>
<path d="M89.7686 80.6142C89.7686 81.1002 89.8684 81.4432 90.0681 81.6433C90.2963 81.8148 90.6528 81.9005 91.1378 81.9005C91.3795 81.9005 91.6048 81.9005 91.9335 81.9005C92.2622 81.9005 92.4642 82.1959 92.4642 82.4664V86.7461L92.4642 86.7657C92.4647 87.0776 92.2262 87.3544 91.847 87.3544C91.1268 87.3544 90.5294 87.3856 89.7686 87.3856L88.7407 87.3855C87.2859 87.3855 86.1591 86.9996 85.3604 86.2278C84.5902 85.4561 84.2052 84.084 84.2052 82.1117V59.8366C84.2052 59.5724 84.4193 59.3582 84.6835 59.3582L89.2902 59.3582C89.5544 59.3582 89.7686 59.5723 89.7686 59.8366V80.6142Z" fill="#E2EEFE"/>
</svg>
